<?xml version="1.0" encoding="utf-8"?>
<!-- Generator: Adobe Illustrator 19.0.0, SVG Export Plug-In . SVG Version: 6.00 Build 0)  -->
<svg version="1.1" id="Layer_1" xmlns="http://www.w3.org/2000/svg" xmlns:xlink="http://www.w3.org/1999/xlink" x="0px" y="0px"
	 viewBox="0 0 612 792" style="enable-background:new 0 0 612 792;" xml:space="preserve">
<style type="text/css">
	.st0{fill:none;stroke:#000000;stroke-width:0.9;stroke-linecap:round;stroke-linejoin:round;}
	.st1{fill:none;stroke:#000000;stroke-width:0.9;}
	.st2{fill:none;stroke:#000000;stroke-width:0.3825;}
	.st3{fill:none;stroke:#008BCB;stroke-width:0.3825;}
	.st4{fill:none;stroke:#000000;stroke-width:0.2125;}
	.st5{fill:none;stroke:#000000;stroke-width:0.25;stroke-miterlimit:3.8637;}
	.st6{fill:none;stroke:#008BCB;stroke-width:0.25;stroke-miterlimit:3.8637;}
	.st7{fill:none;stroke:#008BCB;stroke-width:0.3825;stroke-dasharray:2.8346,1.4173;stroke-dashoffset:1;}
	.st8{fill:none;stroke:#000000;stroke-width:0.2125;stroke-miterlimit:1;}
	.st9{font-family:'ArialMT';}
	.st10{font-size:8.9505px;}
	.st11{letter-spacing:-1;}
	.st12{fill:#009640;}
	.st13{fill:none;stroke:#009640;stroke-width:1.0001;stroke-miterlimit:3.8637;}
</style>
<path class="st0" d="M486,427c-13.4,6.3-27.4,10.9-42.9,13.5c-9.6,5.2-20,6.2-24.4,6.9c-4.5,0.7-5.5,2.8-6.5,5.2
	c-1,2.4-6.9,8.6-15.8,10c-9,1.4-22,3.4-30.6,0.3s-13.8-8.3-15.5-9.6c-1.7-1.4-3.8-3.1-6.2-3.1c-2.4,0-4.5,1.7-6.2,3.1
	c-1.7,1.4-6.9,6.5-15.5,9.6c-8.6,3.1-21.7,1-30.6-0.3c-9-1.4-14.8-7.6-15.8-10c-1-2.4-2.1-4.5-6.5-5.2c-4.5-0.7-14.8-1.7-24.4-6.9
	c-14.4-2.4-27.6-6.6-40.1-12.2"/>
<path class="st1" d="M347,451c0-2.4,0-9.1,0.3-10.2c0.3-1,2.4-2.1,4.8-2.1c2.4,0,10-0.3,16.9-1.4c6.9-1,17.9-3.8,24.8-1
	c6.9,2.8,18.8,10.4,19.9,13.3"/>
<path class="st2" d="M347.3,440.9c0.3-5.5,0.5-17,0.7-19.6c0.1-1.4,0-5.2-1-6.2c0,0,4.5-1,10.7,1.4c6.2,2.4,21.7,9.3,25.5,11
	c3.8,1.7,9,4.7,11.4,9.3"/>
<path class="st3" d="M443,440.5c7.2-3.3,18.6-9,27.9-13.8c3.8-2,9-4.5,14.4-7.2"/>
<path class="st4" d="M486.2,361.3c-6.5-0.7-10.5-0.3-19.1,1.1c-8.6,1.4-24.8,4.8-29.9,8.6c-5.2,3.8-10.7,9.3-12.7,15.1
	s-4.8,19.6,0.3,28.9c5.2,9.3,16.9,13.1,25.1,13.8c8.3,0.7,24.8-5.8,35.1-11.6"/>
<path class="st1" d="M340.8,451c0-2.4,0-9.1-0.3-10.2c-0.3-1-2.4-2.1-4.8-2.1c-2.4,0-10-0.3-16.9-1.4c-6.9-1-17.9-3.8-24.8-1
	c-6.9,2.8-18.8,10.4-19.9,13.3"/>
<path class="st2" d="M340.5,440.9c-0.3-5.5-0.5-17-0.7-19.6c-0.1-1.4,0-5.2,1-6.2c0,0-4.5-1-10.7,1.4c-6.2,2.4-21.7,9.3-25.5,11
	c-3.8,1.7-9,4.7-11.4,9.3"/>
<path class="st2" d="M244.8,440.5c-7.2-3.3-18.6-9-27.9-13.8c-3.5-1.8-8.1-4.1-13-6.5"/>
<path class="st4" d="M204.8,360.5c6.5-0.7,7.3,0.5,15.9,1.9c8.6,1.4,24.8,4.8,29.9,8.6c5.2,3.8,10.7,9.3,12.7,15.1
	c2.1,5.9,4.8,19.6-0.3,28.9c-5.2,9.3-16.9,13.1-25.1,13.8c-8.3,0.7-23.6-5.8-33.9-11.6"/>
<path class="st5" d="M424.7,332.1c3.1,8.5,7,20.9,15.6,36.8"/>
<path class="st5" d="M432.6,374.8c-9-2.1-46.7,4.5-60.5,21.7"/>
<path class="st5" d="M383.1,427.4c2.1-1.7,9-5.9,24.4-0.3"/>
<path class="st5" d="M399.3,416.1c2.1-3.1,13.4-11,22.4-11.4"/>
<path class="st6" d="M419.3,430.5c5.9,5.2,11,7.9,15.1,8.3c4.1,0.3,15.5-0.7,12.4-10.4"/>
<path class="st5" d="M413.8,419.2c3.1,2.4,9,8.3,5.5,11.4c-2.4,2.1-8.3-0.7-11.7-3.4c-3.4-2.8-9.6-8.6-8.3-11
	C400.9,413.3,407.6,414.4,413.8,419.2z"/>
<path class="st5" d="M263.5,331.7c-3.1,8.5-7.4,21.3-16,37.2"/>
<path class="st5" d="M288.5,416.1c5.2-3.8,16.9-12,27.2-19.6c10.3-7.6,24.1-13.1,28.2-13.1s17.9,5.5,28.2,13.1
	c10.3,7.6,22,15.8,27.2,19.6"/>
<path class="st5" d="M255.2,374.8c9-2.1,46.7,4.5,60.5,21.7"/>
<path class="st5" d="M304.7,427.4c9.3-20.3,35.1-29.9,39.2-29.9s29.9,9.6,39.2,29.9"/>
<path class="st5" d="M304.7,427.4c-2.1-1.7-9-5.9-24.4-0.3"/>
<path class="st5" d="M288.5,416.1c-2.1-3.1-13.4-11-22.4-11.4"/>
<path class="st5" d="M268.5,430.5c-5.9,5.2-11,7.9-15.1,8.3c-4.1,0.3-15.5-0.7-12.4-10.4"/>
<path class="st5" d="M274,419.2c-3.1,2.4-9,8.3-5.5,11.4c2.4,2.1,8.3-0.7,11.7-3.4c3.4-2.8,9.6-8.6,8.3-11
	C286.9,413.3,280.2,414.4,274,419.2z"/>
<path class="st7" d="M340.8,415c1.2-0.9,2.1-1.2,3.1-1.2c1,0,1.9,0.3,3.1,1.2"/>
<line class="st8" x1="441" y1="446" x2="430.5" y2="429.5"/>
<line class="st8" x1="407.7" y1="431.4" x2="410.1" y2="420.8"/>
<g>
	<text transform="matrix(1 0 0 1 389.8354 397.3828)" class="st9 st10">LPGiA</text>
</g>
<g>
	<text transform="matrix(1 0 0 1 346.9702 394.4668)" class="st9 st10">GiA</text>
</g>
<g>
	<text transform="matrix(1 0 0 1 346.439 411.1602)" class="st9 st10">RMg</text>
</g>
<g>
	<text transform="matrix(1 0 0 1 357.4165 430.5322)" class="st9 st10">ml</text>
</g>
<g>
	<text transform="matrix(1 0 0 1 381.3081 453.8198)" class="st9 st10">p</text>
	<text transform="matrix(1 0 0 1 385.7207 453.8198)" class="st9 st10">y</text>
</g>
<g>
	<text transform="matrix(1 0 0 1 404.3403 440.0273)" class="st9 st10">PP</text>
	<text transform="matrix(1 0 0 1 414.2695 440.0273)" class="st9 st10">y</text>
</g>
<g>
	<text transform="matrix(1 0 0 1 375.6885 349.5117)" class="st9 st10">Gi</text>
</g>
<g>
	<text transform="matrix(1 0 0 1 459.8267 393.9404)" class="st9 st10">7</text>
</g>
<g>
	<text transform="matrix(1 0 0 1 433.0991 453.4956)" class="st9 st10">LPGiE</text>
</g>
<line class="st8" x1="351.4" y1="442.3" x2="343.9" y2="433.5"/>
<g>
	<text transform="matrix(1 0 0 1 348.8433 450.6411)" class="st9 st10 st11">RP</text>
	<text transform="matrix(1 0 0 1 358.4673 450.6411)" class="st9 st10 st11">a</text>
</g>
<g>
	<g>
		<polygon class="st12" points="262.3,437.6 268.3,431.6 274.3,437.6 268.3,443.6 262.3,437.6 		"/>
		<path class="st12" d="M268.3,437.6"/>
	</g>
	<g>
		<polygon class="st13" points="262.3,437.6 268.3,431.6 274.3,437.6 268.3,443.6 262.3,437.6 		"/>
		<path class="st13" d="M268.3,437.6"/>
	</g>
</g>
</svg>
