<?xml version="1.0" encoding="utf-8"?>
<!-- Generator: Adobe Illustrator 19.0.0, SVG Export Plug-In . SVG Version: 6.00 Build 0)  -->
<svg version="1.1" id="Layer_1" xmlns="http://www.w3.org/2000/svg" xmlns:xlink="http://www.w3.org/1999/xlink" x="0px" y="0px"
	 viewBox="0 0 612 792" style="enable-background:new 0 0 612 792;" xml:space="preserve">
<style type="text/css">
	.st0{fill:none;stroke:#008BCB;stroke-width:0.3825;}
	.st1{fill:none;stroke:#008BCB;stroke-width:0.9;}
	.st2{fill:none;stroke:#008BCB;stroke-width:0.2125;}
	.st3{fill:none;stroke:#008BCB;stroke-width:0.9;stroke-linecap:round;stroke-linejoin:round;}
	.st4{fill:none;stroke:#008BCB;stroke-width:0.25;stroke-miterlimit:3.8637;}
	.st5{fill:none;stroke:#008BCB;stroke-width:0.25;}
	.st6{fill:none;stroke:#000000;stroke-width:0.2125;stroke-miterlimit:1;}
	.st7{font-family:'ArialMT';}
	.st8{font-size:8.9505px;}
	.st9{fill:none;stroke:#000000;stroke-width:0.9;stroke-miterlimit:3.8637;}
	.st10{fill:none;stroke:#B2B2B2;stroke-width:0.17;}
	.st11{fill:none;stroke:#000000;stroke-width:0.17;}
	.st12{font-size:10.3275px;}
	.st13{font-family:'SymbolMT';}
	.st14{font-size:12.96px;}
	.st15{clip-path:url(#SVGID_2_);}
	.st16{fill:none;stroke:#008EA7;stroke-width:0.3825;}
	.st17{fill:none;stroke:#008EA7;stroke-width:0.9;}
	.st18{fill:none;stroke:#008EA7;stroke-width:0.2125;}
	.st19{fill:none;stroke:#008EA7;stroke-width:0.9;stroke-linecap:round;stroke-linejoin:round;}
	.st20{fill:none;stroke:#008EA7;stroke-width:0.25;stroke-miterlimit:3.8637;}
	.st21{fill:none;stroke:#008EA7;stroke-width:0.25;}
	.st22{fill:none;stroke:#536256;stroke-width:0.2125;stroke-miterlimit:1;}
	.st23{fill:#536256;}
	.st24{fill:none;stroke:#536256;stroke-width:0.9;stroke-miterlimit:3.8637;}
	.st25{fill:none;stroke:#99B19C;stroke-width:0.17;}
	.st26{fill:none;stroke:#536256;stroke-width:0.17;}
	.st27{fill:none;stroke:#000000;stroke-width:0.25;stroke-miterlimit:3.8637;}
	.st28{fill:none;stroke:#000000;stroke-width:2;stroke-miterlimit:3.8637;}
	.st29{font-size:8px;}
	.st30{fill:none;stroke:#000000;stroke-width:1.697;stroke-miterlimit:3.8637;}
	.st31{fill-rule:evenodd;clip-rule:evenodd;fill:none;}
	.st32{fill-rule:evenodd;clip-rule:evenodd;fill:none;stroke:#000000;stroke-width:2.8346;stroke-miterlimit:3.8637;}
	.st33{fill:none;stroke:#000000;stroke-miterlimit:3.8637;}
	.st34{fill-rule:evenodd;clip-rule:evenodd;fill:none;stroke:#000000;stroke-width:2;stroke-miterlimit:3.8637;}
	.st35{font-size:12px;}
	.st36{fill-rule:evenodd;clip-rule:evenodd;fill:none;stroke:#000000;stroke-width:0.5;stroke-miterlimit:3.8637;}
	.st37{fill-rule:evenodd;clip-rule:evenodd;}
	.st38{fill-rule:evenodd;clip-rule:evenodd;fill:none;stroke:#000000;stroke-width:0.3033;stroke-miterlimit:3.8637;}
</style>
<path class="st0" d="M336.8,354.6c0,0,0-5.1,0-9c0-3.9-0.2-18.8-0.2-20.4c0-1.6-0.2-6.9,1.8-6.9s12.6-0.7,23.6,3.7
	c11,4.4,20.4,6.2,23.4,17"/>
<path class="st1" d="M336.7,353.1c0-2.5-0.8-12.6,6.3-12.3c5,0.2,18.1-2.5,22-2.8c5-0.3,15.5-0.9,20.4,0.9
	c5.7,2.1,17.2,11.5,19.5,18.3"/>
<path class="st2" d="M473.8,263.7c-5.7-0.8-21.1-1.9-26.6-1.7c-5.5,0.2-10.6,0.9-14.9,3.4c-4.4,2.5-16.1,9.6-17.9,17.2
	c-1.8,7.6,0,18.8,1.4,23.2c1.4,4.4,2.5,9.6,3.7,12.4c1.1,2.8,3.9,12.2,13.3,14.2c9.4,2.1,13.3-0.7,20.4-3.9
	c7.1-3.2,16.6-8.1,20.2-10.4"/>
<path class="st0" d="M329.4,354.6c0,0,0-5.1,0-9c0-3.9,0.2-18.8,0.2-20.4c0-1.6,0.2-6.9-1.8-6.9s-12.6-0.7-23.6,3.7
	c-11,4.4-20.4,6.2-23.4,17"/>
<path class="st1" d="M329.4,353.1c0-2.5,0.4-12.1-6.1-12.3c-5-0.1-18.1-2.5-22-2.8c-5-0.3-15.5-0.9-20.4,0.9
	c-5.7,2.1-17.2,11.5-19.5,18.3"/>
<path class="st2" d="M192.3,262.3c5.7-0.8,21.2-0.4,26.7-0.2c5.5,0.2,10.6,0.9,14.9,3.4c4.4,2.5,16.1,9.6,17.9,17.2
	c1.8,7.6,0,18.8-1.4,23.2c-1.4,4.4-2.5,9.6-3.7,12.4c-1.1,2.8-3.9,12.2-13.3,14.2c-9.4,2.1-13.3-0.7-20.4-3.9
	c-7.1-3.2-16.3-7.1-19.8-9.4"/>
<path class="st3" d="M473.9,327.2l-4.9,2.6c-14.9,7.8-22.9,11.2-28.2,12.6c-5.3,1.4-12.4,5.5-16.3,6.9c-3.9,1.4-12.6,2.5-14.9,3.4
	c-2.3,0.9-4.1,4.8-7.3,7.1c-3.2,2.3-21.8,5.4-38.3,6.7c-9.2,0.7-19.7-4.4-22.5-6.9c-2.8-2.5-5-6.9-8.3-6.9c-3.3,0-5.5,4.4-8.3,6.9
	c-2.8,2.5-13.3,7.6-22.5,6.9c-16.5-1.2-35.1-4.4-38.3-6.7c-3.2-2.3-5-6.2-7.3-7.1c-2.3-0.9-11-2.1-14.9-3.4
	c-3.9-1.4-11-5.5-16.3-6.9c-5.3-1.4-13.3-4.8-28.2-12.6l-5.2-2.7"/>
<path class="st4" d="M376.1,322.1c1.7-0.5,7.9-0.1,10.7,1.7c2.8,1.8,9.4,7.5,12.2,9.4c2.8,1.9,6.7,4.6,10.1,7.3
	c3.4,2.8,7.9,6.9,10.3,6.4c3.2-0.7,6.7-5.5,7.8-7.1c1.1-1.6,2.8-6.2,0.7-9.2"/>
<path class="st4" d="M374.5,302.6c3.8-3.6,18.7-15.5,40.5-21.7"/>
<path class="st5" d="M391.9,327.9c-1.1-0.9-3-3.4-1.2-5.2c1.8-1.8,5.7-0.9,9.2,2.1c3.4,3,6.9,9,1.6,10.1"/>
<path class="st5" d="M399.9,324.7c1.8-2.3,12.2-9,17.7-11"/>
<path class="st5" d="M402.1,232.9c3.2,8,10.6,28,12.9,48"/>
<path class="st4" d="M281.7,322.8c14.2-41.1,46.4-44.9,51.4-44.9c5,0,37.2,3.8,51.4,44.9"/>
<path class="st4" d="M286.1,330.6c7.3-24.1,41.3-32.7,47-32.7c5.7,0,39.7,8.6,47,32.7"/>
<path class="st4" d="M290.1,322.1c-1.7-0.5-7.9-0.1-10.7,1.7c-2.8,1.8-9.4,7.5-12.2,9.4c-2.8,1.9-6.7,4.6-10.1,7.3
	c-3.4,2.8-7.9,6.9-10.3,6.4c-3.2-0.7-6.7-5.5-7.8-7.1c-1.1-1.6-2.8-6.2-0.7-9.2"/>
<path class="st4" d="M291.7,302.6c-3.8-3.6-18.7-15.5-40.5-21.7"/>
<path class="st4" d="M274.3,327.9c1.1-0.9,3-3.4,1.2-5.2c-1.8-1.8-5.7-0.9-9.2,2.1c-3.4,3-6.9,9-1.6,10.1"/>
<path class="st4" d="M266.3,324.7c-1.8-2.3-12.2-9-17.7-11"/>
<path class="st5" d="M329.5,321c0-4.1,1.8-6,3.6-6c1.8,0,3.6,1.8,3.6,6"/>
<path class="st4" d="M264,232.9c-3.2,8-10.5,28-12.8,48"/>
<line class="st6" x1="333.1" y1="330.1" x2="343.2" y2="343"/>
<line class="st6" x1="396.6" y1="326.9" x2="397.8" y2="318.7"/>
<g>
	<text transform="matrix(1 0 0 1 334.7969 289.1426)" class="st7 st8">GiA</text>
</g>
<g>
	<text transform="matrix(1 0 0 1 334.9717 310.6802)" class="st7 st8">RMg</text>
</g>
<g>
	<text transform="matrix(1 0 0 1 354.2681 332.291)" class="st7 st8">ml</text>
</g>
<g>
	<text transform="matrix(1 0 0 1 366.5952 353.1816)" class="st7 st8">p</text>
	<text transform="matrix(1 0 0 1 370.9868 353.1816)" class="st7 st8">y</text>
</g>
<g>
	<text transform="matrix(1 0 0 1 385.8081 303.7036)" class="st7 st8">LPGiA</text>
</g>
<g>
	<text transform="matrix(1 0 0 1 404.6455 336.4282)" class="st7 st8">LPGiE</text>
</g>
<g>
	<text transform="matrix(1 0 0 1 339.6255 351.6069)" class="st7 st8">RP</text>
	<text transform="matrix(1 0 0 1 349.7788 351.6069)" class="st7 st8">a</text>
</g>
<g>
	<text transform="matrix(1 0 0 1 394.2969 317.5605)" class="st7 st8">PP</text>
	<text transform="matrix(1 0 0 1 404.7007 317.5605)" class="st7 st8">y</text>
</g>
<g>
	<text transform="matrix(1 0 0 1 449.1606 297.7959)" class="st7 st8">7</text>
</g>
<g>
	<text transform="matrix(1 0 0 1 423.7524 249.6797)" class="st7 st8">IR</text>
	<text transform="matrix(1 0 0 1 431.6543 249.6797)" class="st7 st8">tA</text>
</g>
<g>
	<text transform="matrix(1 0 0 1 349.3975 252.4194)" class="st7 st8">Gi</text>
</g>
<g>
	<g>
		<polygon class="st9" points="192.8,233.2 473.6,233.2 473.6,373.2 192.8,373.2 192.8,233.2 		"/>
		<path class="st9" d="M333.2,303.2"/>
	</g>
	<line class="st10" x1="220.5" y1="233" x2="220.5" y2="373.6"/>
	<line class="st10" x1="276.6" y1="232.9" x2="276.6" y2="373.6"/>
	<line class="st10" x1="332.7" y1="232.7" x2="332.7" y2="373.6"/>
	<line class="st10" x1="388.8" y1="232.9" x2="388.8" y2="373.6"/>
	<line class="st10" x1="445" y1="232.9" x2="445" y2="373.6"/>
	<line class="st11" x1="198.1" y1="369.7" x2="198.1" y2="373.6"/>
	<line class="st11" x1="209.3" y1="373.6" x2="209.3" y2="369.7"/>
	<g>
		<line class="st11" x1="231.7" y1="369.7" x2="231.7" y2="373.6"/>
		<line class="st11" x1="254.2" y1="369.7" x2="254.2" y2="373.6"/>
		<line class="st11" x1="243" y1="373.6" x2="243" y2="369.7"/>
		<line class="st11" x1="265.4" y1="373.6" x2="265.4" y2="369.7"/>
	</g>
	<g>
		<line class="st11" x1="287.8" y1="369.7" x2="287.8" y2="373.6"/>
		<line class="st11" x1="310.3" y1="369.7" x2="310.3" y2="373.6"/>
		<line class="st11" x1="299.1" y1="373.6" x2="299.1" y2="369.7"/>
		<line class="st11" x1="321.5" y1="373.6" x2="321.5" y2="369.7"/>
	</g>
	<g>
		<line class="st11" x1="344" y1="369.7" x2="344" y2="373.6"/>
		<line class="st11" x1="366.4" y1="369.7" x2="366.4" y2="373.6"/>
		<line class="st11" x1="355.2" y1="373.6" x2="355.2" y2="369.7"/>
		<line class="st11" x1="377.6" y1="373.6" x2="377.6" y2="369.7"/>
	</g>
	<g>
		<line class="st11" x1="400.1" y1="369.7" x2="400.1" y2="373.6"/>
		<line class="st11" x1="422.5" y1="369.7" x2="422.5" y2="373.6"/>
		<line class="st11" x1="411.3" y1="373.6" x2="411.3" y2="369.7"/>
		<line class="st11" x1="433.7" y1="373.6" x2="433.7" y2="369.7"/>
	</g>
	<line class="st11" x1="456.2" y1="369.7" x2="456.2" y2="373.6"/>
	<line class="st11" x1="467.4" y1="373.6" x2="467.4" y2="369.7"/>
	<g>
		<g>
			<text transform="matrix(1 0 0 1 218.2847 376.9731)" class="st7 st12">2</text>
		</g>
	</g>
	<g>
		<g>
			<text transform="matrix(1 0 0 1 274.395 376.9731)" class="st7 st12">1</text>
		</g>
	</g>
	<g>
		<g>
			<text transform="matrix(1 0 0 1 330.5054 376.9731)" class="st7 st12">0</text>
		</g>
	</g>
	<g>
		<g>
			<text transform="matrix(1 0 0 1 386.6157 376.9731)" class="st7 st12">1</text>
		</g>
	</g>
	<g>
		<g>
			<text transform="matrix(1 0 0 1 442.7261 376.9731)" class="st7 st12">2</text>
		</g>
	</g>
	<line class="st10" x1="473.6" y1="261.4" x2="192.4" y2="261.4"/>
	<line class="st10" x1="473.3" y1="317.5" x2="192.1" y2="317.5"/>
</g>
<g>
	<text transform="matrix(1 0 0 1 46.3403 305.0698)" class="st13 st14">b </text>
	<text transform="matrix(1 0 0 1 56.6958 305.0698)" class="st7 st14">-1</text>
	<text transform="matrix(1 0 0 1 63.343 305.0698)" class="st7 st14">1.04 mm</text>
</g>
<g>
	<g>
		<defs>
			<path id="SVGID_1_" d="M333,329.5c-8.1-3.7-50.7,9.1-54.5,10c-4,1-34.5,12.5-37.4,9.2c-10.5-12.3,10.3-33.8,15.5-42
				c3.1-4.8,72.8-28.8,76.1-28.8c4,0,72.3,23.1,76.3,28.3c4.8,6.3,23,35.7,16.3,42.9c-3.8,4-31.3-4.4-36.8-8.1
				C384.1,338,341.1,325.8,333,329.5z"/>
		</defs>
		<use xlink:href="#SVGID_1_"  style="overflow:visible;fill-rule:evenodd;clip-rule:evenodd;fill:#C1DFC4;"/>
		<clipPath id="SVGID_2_">
			<use xlink:href="#SVGID_1_"  style="overflow:visible;"/>
		</clipPath>
		<g class="st15">
			<path class="st16" d="M336.8,354.6c0,0,0-5.1,0-9c0-3.9-0.2-18.8-0.2-20.4c0-1.6-0.2-6.9,1.8-6.9s12.6-0.7,23.6,3.7
				c11,4.4,20.4,6.2,23.4,17"/>
			<path class="st17" d="M336.7,353.1c0-2.5-0.8-12.6,6.3-12.3c5,0.2,18.1-2.5,22-2.8c5-0.3,15.5-0.9,20.4,0.9
				c5.7,2.1,17.2,11.5,19.5,18.3"/>
			<path class="st18" d="M473.8,263.7c-5.7-0.8-21.1-1.9-26.6-1.7c-5.5,0.2-10.6,0.9-14.9,3.4c-4.4,2.5-16.1,9.6-17.9,17.2
				c-1.8,7.6,0,18.8,1.4,23.2c1.4,4.4,2.5,9.6,3.7,12.4c1.1,2.8,3.9,12.2,13.3,14.2c9.4,2.1,13.3-0.7,20.4-3.9
				c7.1-3.2,16.6-8.1,20.2-10.4"/>
			<path class="st16" d="M329.4,354.6c0,0,0-5.1,0-9c0-3.9,0.2-18.8,0.2-20.4c0-1.6,0.2-6.9-1.8-6.9s-12.6-0.7-23.6,3.7
				c-11,4.4-20.4,6.2-23.4,17"/>
			<path class="st17" d="M329.4,353.1c0-2.5,0.4-12.1-6.1-12.3c-5-0.1-18.1-2.5-22-2.8c-5-0.3-15.5-0.9-20.4,0.9
				c-5.7,2.1-17.2,11.5-19.5,18.3"/>
			<path class="st18" d="M192.3,262.3c5.7-0.8,21.2-0.4,26.7-0.2c5.5,0.2,10.6,0.9,14.9,3.4c4.4,2.5,16.1,9.6,17.9,17.2
				c1.8,7.6,0,18.8-1.4,23.2c-1.4,4.4-2.5,9.6-3.7,12.4c-1.1,2.8-3.9,12.2-13.3,14.2c-9.4,2.1-13.3-0.7-20.4-3.9
				c-7.1-3.2-16.3-7.1-19.8-9.4"/>
			<path class="st19" d="M473.9,327.2l-4.9,2.6c-14.9,7.8-22.9,11.2-28.2,12.6c-5.3,1.4-12.4,5.5-16.3,6.9
				c-3.9,1.4-12.6,2.5-14.9,3.4c-2.3,0.9-4.1,4.8-7.3,7.1c-3.2,2.3-21.8,5.4-38.3,6.7c-9.2,0.7-19.7-4.4-22.5-6.9
				c-2.8-2.5-5-6.9-8.3-6.9c-3.3,0-5.5,4.4-8.3,6.9c-2.8,2.5-13.3,7.6-22.5,6.9c-16.5-1.2-35.1-4.4-38.3-6.7c-3.2-2.3-5-6.2-7.3-7.1
				c-2.3-0.9-11-2.1-14.9-3.4c-3.9-1.4-11-5.5-16.3-6.9c-5.3-1.4-13.3-4.8-28.2-12.6l-5.2-2.7"/>
			<path class="st20" d="M376.1,322.1c1.7-0.5,7.9-0.1,10.7,1.7c2.8,1.8,9.4,7.5,12.2,9.4c2.8,1.9,6.7,4.6,10.1,7.3
				c3.4,2.8,7.9,6.9,10.3,6.4c3.2-0.7,6.7-5.5,7.8-7.1c1.1-1.6,2.8-6.2,0.7-9.2"/>
			<path class="st20" d="M374.5,302.6c3.8-3.6,18.7-15.5,40.5-21.7"/>
			<path class="st21" d="M391.9,327.9c-1.1-0.9-3-3.4-1.2-5.2c1.8-1.8,5.7-0.9,9.2,2.1c3.4,3,6.9,9,1.6,10.1"/>
			<path class="st21" d="M399.9,324.7c1.8-2.3,12.2-9,17.7-11"/>
			<path class="st21" d="M402.1,232.9c3.2,8,10.6,28,12.9,48"/>
			<path class="st20" d="M281.7,322.8c14.2-41.1,46.4-44.9,51.4-44.9c5,0,37.2,3.8,51.4,44.9"/>
			<path class="st20" d="M286.1,330.6c7.3-24.1,41.3-32.7,47-32.7c5.7,0,39.7,8.6,47,32.7"/>
			<path class="st20" d="M290.1,322.1c-1.7-0.5-7.9-0.1-10.7,1.7c-2.8,1.8-9.4,7.5-12.2,9.4c-2.8,1.9-6.7,4.6-10.1,7.3
				c-3.4,2.8-7.9,6.9-10.3,6.4c-3.2-0.7-6.7-5.5-7.8-7.1c-1.1-1.6-2.8-6.2-0.7-9.2"/>
			<path class="st20" d="M291.7,302.6c-3.8-3.6-18.7-15.5-40.5-21.7"/>
			<path class="st20" d="M274.3,327.9c1.1-0.9,3-3.4,1.2-5.2c-1.8-1.8-5.7-0.9-9.2,2.1c-3.4,3-6.9,9-1.6,10.1"/>
			<path class="st20" d="M266.3,324.7c-1.8-2.3-12.2-9-17.7-11"/>
			<path class="st21" d="M329.5,321c0-4.1,1.8-6,3.6-6c1.8,0,3.6,1.8,3.6,6"/>
			<path class="st20" d="M264,232.9c-3.2,8-10.5,28-12.8,48"/>
			<line class="st22" x1="333.1" y1="330.1" x2="343.2" y2="343"/>
			<line class="st22" x1="396.6" y1="326.9" x2="397.8" y2="318.7"/>
			<g>
				<text transform="matrix(1 0 0 1 334.7969 289.6846)" class="st23 st7 st8">GiA</text>
			</g>
			<g>
				<text transform="matrix(1 0 0 1 334.9717 311.2222)" class="st23 st7 st8">RMg</text>
			</g>
			<g>
				<text transform="matrix(1 0 0 1 354.2681 332.833)" class="st23 st7 st8">ml</text>
			</g>
			<g>
				<text transform="matrix(1 0 0 1 366.5952 353.7231)" class="st23 st7 st8">p</text>
				<text transform="matrix(1 0 0 1 370.9868 353.7231)" class="st23 st7 st8">y</text>
			</g>
			<g>
				<text transform="matrix(1 0 0 1 385.8081 304.2456)" class="st23 st7 st8">LPGiA</text>
			</g>
			<g>
				<text transform="matrix(1 0 0 1 404.6455 336.9702)" class="st23 st7 st8">LPGiE</text>
			</g>
			<g>
				<text transform="matrix(1 0 0 1 341.3745 352.1489)" class="st23 st7 st8">RP</text>
				<text transform="matrix(1 0 0 1 344.7021 362.4761)" class="st23 st7 st8">a</text>
			</g>
			<g>
				<text transform="matrix(1 0 0 1 396.1714 318.1025)" class="st23 st7 st8">PP</text>
				<text transform="matrix(1 0 0 1 399.499 328.4297)" class="st23 st7 st8">y</text>
			</g>
			<g>
				<g>
					<polygon class="st24" points="192.8,233.2 473.6,233.2 473.6,373.2 192.8,373.2 192.8,233.2 					"/>
					<path class="st24" d="M333.2,303.2"/>
				</g>
				<line class="st25" x1="220.5" y1="233" x2="220.5" y2="373.6"/>
				<line class="st25" x1="276.6" y1="232.9" x2="276.6" y2="373.6"/>
				<line class="st25" x1="332.7" y1="232.7" x2="332.7" y2="373.6"/>
				<line class="st25" x1="388.8" y1="232.9" x2="388.8" y2="373.6"/>
				<line class="st25" x1="445" y1="232.9" x2="445" y2="373.6"/>
				<line class="st26" x1="198.1" y1="369.7" x2="198.1" y2="373.6"/>
				<line class="st26" x1="209.3" y1="373.6" x2="209.3" y2="369.7"/>
				<g>
					<line class="st26" x1="231.7" y1="369.7" x2="231.7" y2="373.6"/>
					<line class="st26" x1="254.2" y1="369.7" x2="254.2" y2="373.6"/>
					<line class="st26" x1="243" y1="373.6" x2="243" y2="369.7"/>
					<line class="st26" x1="265.4" y1="373.6" x2="265.4" y2="369.7"/>
				</g>
				<g>
					<line class="st26" x1="287.8" y1="369.7" x2="287.8" y2="373.6"/>
					<line class="st26" x1="310.3" y1="369.7" x2="310.3" y2="373.6"/>
					<line class="st26" x1="299.1" y1="373.6" x2="299.1" y2="369.7"/>
					<line class="st26" x1="321.5" y1="373.6" x2="321.5" y2="369.7"/>
				</g>
				<g>
					<line class="st26" x1="344" y1="369.7" x2="344" y2="373.6"/>
					<line class="st26" x1="366.4" y1="369.7" x2="366.4" y2="373.6"/>
					<line class="st26" x1="355.2" y1="373.6" x2="355.2" y2="369.7"/>
					<line class="st26" x1="377.6" y1="373.6" x2="377.6" y2="369.7"/>
				</g>
				<g>
					<line class="st26" x1="400.1" y1="369.7" x2="400.1" y2="373.6"/>
					<line class="st26" x1="422.5" y1="369.7" x2="422.5" y2="373.6"/>
					<line class="st26" x1="411.3" y1="373.6" x2="411.3" y2="369.7"/>
					<line class="st26" x1="433.7" y1="373.6" x2="433.7" y2="369.7"/>
				</g>
				<line class="st26" x1="456.2" y1="369.7" x2="456.2" y2="373.6"/>
				<line class="st26" x1="467.4" y1="373.6" x2="467.4" y2="369.7"/>
				<g>
					<g>
						<text transform="matrix(1 0 0 1 218.2847 377.5986)" class="st23 st7 st12">2</text>
					</g>
				</g>
				<g>
					<g>
						<text transform="matrix(1 0 0 1 274.395 377.5986)" class="st23 st7 st12">1</text>
					</g>
				</g>
				<g>
					<g>
						<text transform="matrix(1 0 0 1 330.5054 377.5986)" class="st23 st7 st12">0</text>
					</g>
				</g>
				<g>
					<g>
						<text transform="matrix(1 0 0 1 386.6157 377.5986)" class="st23 st7 st12">1</text>
					</g>
				</g>
				<g>
					<g>
						<text transform="matrix(1 0 0 1 442.7261 377.5986)" class="st23 st7 st12">2</text>
					</g>
				</g>
				<line class="st25" x1="473.6" y1="261.4" x2="192.4" y2="261.4"/>
				<line class="st25" x1="473.3" y1="317.5" x2="192.1" y2="317.5"/>
			</g>
		</g>
		
			<use xlink:href="#SVGID_1_"  style="overflow:visible;fill-rule:evenodd;clip-rule:evenodd;fill:none;stroke:#009640;stroke-miterlimit:3.8637;"/>
	</g>
</g>
<g>
	<polygon class="st27" points="298.7,426.8 298.7,418.3 307.2,418.3 307.2,426.8 298.7,426.8 	"/>
	<path class="st27" d="M302.9,422.5"/>
</g>
<g>
	<ellipse class="st28" cx="304.8" cy="481" rx="4.7" ry="4.6"/>
	<path class="st28" d="M304.8,481"/>
</g>
<g>
	<text transform="matrix(1 0 0 1 316.8872 412.98)" class="st7 st29">ON</text>
</g>
<g>
	<text transform="matrix(1 0 0 1 314.7739 438.0107)" class="st7 st29">OFF</text>
</g>
<g>
	<text transform="matrix(1 0 0 1 312.3213 425.2124)" class="st7 st29">Neutral</text>
</g>
<g>
	<text transform="matrix(1 0 0 1 315.2749 469.1133)" class="st7 st29">5-HT</text>
	<text transform="matrix(1 0 0 1 334.4766 469.1133)" class="st7 st29">+</text>
</g>
<g>
	<text transform="matrix(1 0 0 1 315.1909 483.3633)" class="st7 st29">5-HT</text>
	<text transform="matrix(1 0 0 1 334.207 483.3633)" class="st7 st29">-</text>
	<text transform="matrix(1 0 0 1 338.5967 483.3633)" class="st7 st29">/</text>
	<text transform="matrix(1 0 0 1 342.5327 483.3633)" class="st7 st29">?</text>
</g>
<g>
	<polygon class="st30" points="285.1,397.5 376.6,397.5 376.6,521.3 285.1,521.3 285.1,397.5 	"/>
	<path class="st30" d="M330.9,459.4"/>
</g>
<g>
	<polygon class="st27" points="298.8,439.2 298.8,430.7 307.3,430.7 307.3,439.2 298.8,439.2 	"/>
	<path class="st27" d="M303,435"/>
</g>
<g>
	<g>
		<polygon points="298.8,414.6 298.8,406.1 307.3,406.1 307.3,414.6 298.8,414.6 		"/>
		<path d="M303,410.4"/>
	</g>
	<g>
		<polygon class="st27" points="298.8,414.6 298.8,406.1 307.3,406.1 307.3,414.6 298.8,414.6 		"/>
		<path class="st27" d="M303,410.4"/>
	</g>
</g>
<g>
	<text transform="matrix(1 0 0 1 311.6021 510.395)" class="st7 st29">Antidromique</text>
</g>
<g>
	<line class="st31" x1="299.2" y1="422.4" x2="306.6" y2="422.4"/>
	<line class="st32" x1="299.2" y1="422.4" x2="306.6" y2="422.4"/>
</g>
<g>
	<circle class="st33" cx="305.2" cy="507.9" r="2.6"/>
	<path class="st33" d="M305.2,507.9"/>
</g>
<polygon class="st34" points="295.1,462.4 301.9,462.4 304.2,455.7 306.3,462.4 313.1,462.4 307.6,466.5 309.7,473.1 304.2,469.1 
	298.6,473 300.6,466.5 "/>
<g>
	<text transform="matrix(1 0 0 1 157.6973 336.3672)" class="st7 st35">49 A</text>
</g>
<line class="st36" x1="247.6" y1="317.5" x2="181.3" y2="332.5"/>
<g>
	<polygon class="st37" points="246,313.1 252.8,313.1 255,306.4 257.2,313.2 263.9,313.2 258.5,317.2 260.5,323.8 255.1,319.9 
		249.5,323.8 251.4,317.3 	"/>
	<polygon class="st38" points="246,313.1 252.8,313.1 255,306.4 257.2,313.2 263.9,313.2 258.5,317.2 260.5,323.8 255.1,319.9 
		249.5,323.8 251.4,317.3 	"/>
</g>
</svg>
